<svg xmlns="http://www.w3.org/2000/svg" xmlns:xlink="http://www.w3.org/1999/xlink" width="500" zoomAndPan="magnify" viewBox="0 0 375 374.999991" height="500" preserveAspectRatio="xMidYMid meet" version="1.0"><defs><g/><clipPath id="538c3d24f5"><path d="M 57.789062 148 L 137.289062 148 L 137.289062 236.675781 L 57.789062 236.675781 Z M 57.789062 148 " clip-rule="nonzero"/></clipPath><clipPath id="475cb1121e"><path d="M 95 138.425781 L 118 138.425781 L 118 163 L 95 163 Z M 95 138.425781 " clip-rule="nonzero"/></clipPath><clipPath id="3a25e2be1c"><path d="M 123 162 L 137.273438 162 L 137.273438 167 L 123 167 Z M 123 162 " clip-rule="nonzero"/></clipPath><clipPath id="00f77bdb1c"><path d="M 122 152.285156 L 131 152.285156 L 131 165 L 122 165 Z M 122 152.285156 " clip-rule="nonzero"/></clipPath></defs><g clip-path="url(#538c3d24f5)"><path fill="#031d40" d="M 137.230469 218.878906 C 129.175781 229.59375 116.359375 236.527344 101.925781 236.527344 C 86.355469 236.527344 72.664062 228.464844 64.808594 216.285156 C 60.363281 209.394531 57.785156 201.191406 57.785156 192.390625 C 57.785156 191.648438 57.804688 190.914062 57.839844 190.183594 C 58.988281 166.832031 78.289062 148.25 101.925781 148.25 C 102.894531 148.25 103.851562 148.285156 104.804688 148.34375 C 104.660156 148.496094 104.53125 148.679688 104.441406 148.898438 C 104.222656 149.429688 104.257812 150.035156 104.238281 150.597656 C 104.230469 150.828125 103.910156 151.089844 103.785156 151.257812 C 103.511719 151.617188 103.351562 151.964844 103.214844 152.394531 C 103.183594 152.492188 103.167969 152.59375 103.160156 152.683594 C 102.746094 152.671875 102.335938 152.664062 101.921875 152.664062 C 79.984375 152.664062 62.199219 170.449219 62.199219 192.386719 C 62.199219 192.730469 62.199219 193.070312 62.210938 193.410156 L 62.210938 193.414062 C 62.21875 193.75 62.230469 194.089844 62.25 194.425781 L 62.25 194.433594 C 62.265625 194.769531 62.285156 195.101562 62.3125 195.433594 L 62.3125 195.449219 C 62.339844 195.785156 62.371094 196.113281 62.398438 196.445312 L 62.402344 196.449219 C 62.46875 197.113281 62.550781 197.777344 62.652344 198.433594 L 62.65625 198.4375 C 62.703125 198.765625 62.757812 199.089844 62.816406 199.414062 L 62.816406 199.417969 C 62.875 199.742188 62.9375 200.066406 63.003906 200.386719 L 63.003906 200.394531 C 63.070312 200.714844 63.136719 201.035156 63.210938 201.351562 L 63.214844 201.355469 C 63.347656 201.945312 63.5 202.53125 63.660156 203.109375 C 63.667969 203.136719 63.679688 203.160156 63.6875 203.1875 C 63.710938 203.285156 63.738281 203.378906 63.769531 203.472656 C 63.828125 203.667969 63.882812 203.867188 63.945312 204.0625 C 63.976562 204.171875 64.007812 204.277344 64.042969 204.386719 C 64.101562 204.570312 64.164062 204.753906 64.222656 204.9375 C 64.257812 205.042969 64.292969 205.148438 64.332031 205.253906 C 64.394531 205.453125 64.46875 205.648438 64.535156 205.839844 C 64.570312 205.929688 64.601562 206.019531 64.632812 206.105469 C 64.734375 206.386719 64.84375 206.667969 64.949219 206.945312 L 64.957031 206.957031 C 65.0625 207.234375 65.175781 207.507812 65.289062 207.777344 C 65.328125 207.863281 65.363281 207.953125 65.402344 208.039062 C 65.484375 208.226562 65.566406 208.414062 65.648438 208.601562 C 65.691406 208.703125 65.738281 208.800781 65.785156 208.902344 C 65.867188 209.082031 65.949219 209.253906 66.03125 209.425781 C 66.078125 209.527344 66.121094 209.625 66.171875 209.722656 C 66.261719 209.90625 66.355469 210.089844 66.449219 210.277344 C 66.492188 210.359375 66.53125 210.441406 66.570312 210.527344 C 66.707031 210.789062 66.84375 211.050781 66.984375 211.308594 C 67.003906 211.335938 67.015625 211.363281 67.035156 211.394531 C 67.15625 211.625 67.285156 211.855469 67.417969 212.085938 C 67.46875 212.171875 67.519531 212.253906 67.570312 212.34375 C 67.667969 212.511719 67.769531 212.6875 67.875 212.859375 C 67.929688 212.953125 67.988281 213.042969 68.042969 213.136719 L 68.351562 213.628906 C 68.410156 213.71875 68.46875 213.808594 68.523438 213.898438 C 68.636719 214.074219 68.75 214.25 68.867188 214.421875 C 68.917969 214.492188 68.964844 214.566406 69.011719 214.640625 C 69.175781 214.882812 69.34375 215.125 69.515625 215.363281 C 69.542969 215.402344 69.574219 215.441406 69.601562 215.480469 C 69.746094 215.683594 69.890625 215.882812 70.035156 216.078125 C 70.097656 216.160156 70.160156 216.238281 70.21875 216.320312 C 70.335938 216.476562 70.457031 216.632812 70.578125 216.789062 C 70.644531 216.875 70.710938 216.960938 70.78125 217.046875 C 70.898438 217.195312 71.019531 217.347656 71.140625 217.492188 C 71.207031 217.574219 71.277344 217.660156 71.347656 217.742188 C 71.480469 217.902344 71.617188 218.0625 71.753906 218.222656 C 71.808594 218.289062 71.863281 218.351562 71.917969 218.417969 C 72.109375 218.640625 72.304688 218.855469 72.5 219.074219 C 72.539062 219.117188 72.578125 219.160156 72.617188 219.199219 C 72.777344 219.378906 72.941406 219.550781 73.105469 219.722656 L 73.3125 219.9375 C 73.449219 220.078125 73.585938 220.21875 73.726562 220.359375 C 73.800781 220.441406 73.878906 220.515625 73.957031 220.59375 C 74.09375 220.730469 74.234375 220.863281 74.375 221 C 74.449219 221.070312 74.523438 221.140625 74.597656 221.214844 C 74.753906 221.363281 74.914062 221.507812 75.074219 221.65625 C 75.132812 221.710938 75.1875 221.765625 75.246094 221.816406 C 75.464844 222.015625 75.683594 222.210938 75.90625 222.398438 C 75.957031 222.441406 76.007812 222.488281 76.058594 222.53125 C 76.230469 222.679688 76.40625 222.824219 76.578125 222.96875 C 76.65625 223.035156 76.738281 223.105469 76.816406 223.167969 C 76.96875 223.292969 77.121094 223.414062 77.277344 223.535156 C 77.359375 223.601562 77.445312 223.667969 77.527344 223.734375 C 77.679688 223.855469 77.839844 223.972656 77.996094 224.089844 C 78.078125 224.152344 78.15625 224.214844 78.242188 224.277344 C 78.421875 224.410156 78.605469 224.542969 78.789062 224.675781 C 78.84375 224.71875 78.898438 224.757812 78.957031 224.800781 C 79.199219 224.96875 79.4375 225.136719 79.683594 225.300781 C 79.746094 225.34375 79.804688 225.382812 79.867188 225.425781 C 80.050781 225.546875 80.238281 225.667969 80.425781 225.789062 C 80.511719 225.847656 80.601562 225.902344 80.6875 225.960938 C 80.851562 226.0625 81.015625 226.167969 81.179688 226.265625 C 81.277344 226.324219 81.371094 226.382812 81.464844 226.441406 C 81.632812 226.539062 81.800781 226.640625 81.96875 226.738281 C 82.058594 226.789062 82.144531 226.84375 82.238281 226.894531 C 82.441406 227.007812 82.644531 227.125 82.847656 227.234375 C 82.902344 227.265625 82.957031 227.296875 83.011719 227.328125 C 83.273438 227.464844 83.53125 227.605469 83.796875 227.742188 C 83.871094 227.777344 83.941406 227.8125 84.011719 227.847656 C 84.207031 227.945312 84.402344 228.042969 84.597656 228.136719 C 84.691406 228.183594 84.789062 228.230469 84.890625 228.277344 C 85.066406 228.359375 85.238281 228.441406 85.414062 228.523438 C 85.515625 228.570312 85.617188 228.617188 85.722656 228.660156 C 85.898438 228.742188 86.078125 228.820312 86.257812 228.898438 C 86.355469 228.941406 86.453125 228.980469 86.550781 229.019531 C 86.773438 229.117188 86.996094 229.207031 87.222656 229.296875 C 87.273438 229.316406 87.324219 229.339844 87.375 229.359375 C 87.65625 229.46875 87.933594 229.574219 88.214844 229.679688 C 88.292969 229.707031 88.371094 229.734375 88.449219 229.765625 C 88.65625 229.839844 88.863281 229.910156 89.070312 229.984375 C 89.171875 230.015625 89.273438 230.050781 89.375 230.082031 C 89.558594 230.144531 89.746094 230.207031 89.933594 230.265625 C 90.042969 230.300781 90.148438 230.332031 90.257812 230.367188 C 90.449219 230.425781 90.644531 230.484375 90.839844 230.539062 C 90.9375 230.566406 91.035156 230.597656 91.132812 230.625 C 91.382812 230.695312 91.632812 230.765625 91.886719 230.832031 C 91.929688 230.839844 91.96875 230.851562 92.011719 230.863281 C 92.304688 230.9375 92.597656 231.011719 92.890625 231.078125 C 92.984375 231.097656 93.074219 231.117188 93.164062 231.140625 C 93.371094 231.1875 93.578125 231.230469 93.785156 231.273438 C 93.898438 231.296875 94.011719 231.316406 94.125 231.34375 C 94.316406 231.378906 94.511719 231.417969 94.703125 231.453125 C 94.816406 231.472656 94.925781 231.496094 95.039062 231.515625 C 95.246094 231.550781 95.453125 231.585938 95.660156 231.617188 C 95.757812 231.632812 95.855469 231.648438 95.953125 231.664062 C 96.238281 231.707031 96.53125 231.75 96.816406 231.785156 C 96.835938 231.785156 96.851562 231.789062 96.871094 231.792969 C 97.175781 231.832031 97.480469 231.867188 97.789062 231.898438 C 97.890625 231.90625 97.984375 231.914062 98.082031 231.925781 C 98.296875 231.949219 98.511719 231.964844 98.726562 231.984375 C 98.820312 231.992188 98.910156 231.996094 99.003906 232.003906 C 99.027344 232.007812 99.046875 232.007812 99.066406 232.007812 C 99.269531 232.023438 99.476562 232.035156 99.679688 232.046875 C 99.792969 232.054688 99.910156 232.058594 100.023438 232.066406 C 100.238281 232.078125 100.453125 232.082031 100.671875 232.089844 C 100.769531 232.09375 100.871094 232.097656 100.972656 232.101562 C 101.289062 232.109375 101.601562 232.113281 101.921875 232.113281 C 102.050781 232.113281 102.179688 232.113281 102.308594 232.113281 L 102.375 232.113281 C 102.4375 232.113281 102.503906 232.113281 102.566406 232.109375 C 115.867188 232.066406 128.003906 227.074219 137.230469 218.878906 Z M 137.230469 218.878906 " fill-opacity="1" fill-rule="evenodd"/></g><path fill="#031d40" d="M 101.925781 232.113281 C 102.140625 232.113281 102.355469 232.113281 102.570312 232.109375 C 102.355469 232.113281 102.140625 232.113281 101.925781 232.113281 Z M 101.925781 232.113281 " fill-opacity="1" fill-rule="evenodd"/><path fill="#031d40" d="M 103.410156 232.085938 L 103.410156 232.089844 L 103.402344 232.089844 Z M 103.410156 232.085938 " fill-opacity="1" fill-rule="evenodd"/><path fill="#ffffff" d="M 104.132812 227.636719 C 103.835938 227.65625 103.535156 227.671875 103.238281 227.683594 C 102.804688 227.699219 102.363281 227.707031 101.925781 227.707031 C 97.921875 227.707031 94.082031 227.039062 90.496094 225.816406 C 76.742188 221.113281 66.8125 208.15625 66.617188 192.855469 C 66.613281 192.699219 66.613281 192.542969 66.613281 192.390625 C 66.613281 192.25 66.613281 192.109375 66.613281 191.964844 C 66.835938 175.511719 79.980469 162.179688 96.355469 161.648438 L 96.222656 162.019531 C 91.589844 162.878906 87.316406 164.777344 83.660156 167.464844 C 76.136719 172.988281 71.203125 181.835938 71.027344 191.839844 C 71.027344 192.023438 71.027344 192.203125 71.027344 192.390625 C 71.027344 203.910156 76.546875 214.148438 85.089844 220.59375 C 90.453125 224.644531 97.007812 227.199219 104.132812 227.636719 Z M 104.132812 227.636719 " fill-opacity="1" fill-rule="evenodd"/><g clip-path="url(#475cb1121e)"><path fill="#031d40" d="M 117.160156 150.46875 C 117.109375 150.617188 116.980469 150.757812 116.78125 150.886719 C 116.300781 151.199219 115.410156 151.457031 114.234375 151.664062 C 114.195312 151.671875 114.148438 151.675781 114.113281 151.683594 C 113.425781 151.800781 112.648438 151.902344 111.804688 151.984375 C 111.148438 152.042969 110.453125 152.097656 109.722656 152.140625 L 108.957031 153.195312 L 107.480469 155.226562 L 106.433594 156.671875 L 106.429688 156.671875 L 104.570312 159.238281 L 103.457031 160.769531 L 103.0625 161.304688 L 102.617188 161.914062 L 102.492188 162.089844 C 102.261719 162.355469 101.921875 162.523438 101.542969 162.523438 C 100.851562 162.523438 100.289062 161.960938 100.289062 161.269531 C 100.289062 161.199219 100.292969 161.132812 100.304688 161.066406 C 100.371094 160.898438 100.441406 160.734375 100.503906 160.566406 C 100.523438 160.523438 100.539062 160.480469 100.554688 160.4375 C 100.582031 160.378906 100.605469 160.320312 100.628906 160.261719 L 101.839844 156.941406 C 102.316406 155.527344 102.75 154.109375 103.136719 152.699219 C 103.148438 152.648438 103.164062 152.601562 103.175781 152.546875 L 95.230469 152.546875 L 95.230469 149.023438 C 95.90625 148.898438 96.582031 148.785156 97.261719 148.695312 C 98.335938 148.550781 99.417969 148.445312 100.503906 148.386719 L 103.175781 148.386719 C 103.171875 148.371094 103.167969 148.351562 103.160156 148.335938 C 102.769531 146.894531 102.324219 145.441406 101.839844 143.996094 L 100.785156 141.105469 L 100.628906 140.675781 C 100.605469 140.617188 100.582031 140.5625 100.558594 140.5 C 100.539062 140.457031 100.523438 140.414062 100.503906 140.375 C 100.441406 140.207031 100.375 140.039062 100.308594 139.871094 C 100.296875 139.804688 100.292969 139.738281 100.292969 139.671875 C 100.292969 138.976562 100.851562 138.414062 101.546875 138.414062 C 101.921875 138.414062 102.265625 138.582031 102.496094 138.851562 L 102.621094 139.023438 L 103.0625 139.636719 L 103.457031 140.167969 L 104.339844 141.382812 L 104.570312 141.699219 L 106.433594 144.265625 L 107.484375 145.710938 L 109.726562 148.796875 C 110.453125 148.84375 111.148438 148.894531 111.808594 148.957031 C 112.648438 149.039062 113.425781 149.136719 114.113281 149.257812 C 114.152344 149.261719 114.195312 149.269531 114.234375 149.277344 C 115.410156 149.480469 116.300781 149.738281 116.78125 150.054688 C 116.980469 150.183594 117.109375 150.320312 117.160156 150.46875 Z M 117.160156 150.46875 " fill-opacity="1" fill-rule="evenodd"/></g><path fill="#f68712" d="M 102.773438 164.980469 C 87.222656 164.980469 74.621094 177.585938 74.621094 193.132812 C 74.621094 197.296875 75.53125 201.246094 77.152344 204.804688 C 80.433594 206.621094 84.6875 206.839844 88.160156 205.101562 C 95.40625 201.238281 101.6875 194.960938 110.382812 193.027344 C 119.554688 191.191406 126.109375 196.761719 128.40625 204.769531 C 130.019531 201.222656 130.925781 197.285156 130.925781 193.132812 C 130.925781 177.585938 118.320312 164.980469 102.773438 164.980469 Z M 102.773438 164.980469 " fill-opacity="1" fill-rule="nonzero"/><path fill="#fefefe" d="M 122.761719 181.621094 C 122.761719 187.585938 117.925781 192.417969 111.964844 192.417969 C 106 192.417969 101.167969 187.585938 101.167969 181.621094 C 101.167969 175.660156 106 170.824219 111.964844 170.824219 C 117.925781 170.824219 122.761719 175.660156 122.761719 181.621094 Z M 122.761719 181.621094 " fill-opacity="1" fill-rule="nonzero"/><path fill="#031d40" d="M 74.957031 197.5 C 74.957031 197.5 69.773438 205.40625 75.167969 213.796875 C 79.703125 220.855469 92.652344 220.859375 104.640625 210.070312 C 116.632812 199.277344 126.222656 204.605469 128.222656 212.199219 C 127.421875 203.007812 118.929688 196.914062 110.4375 198.710938 C 101.945312 200.511719 92.953125 207.902344 86.859375 209.902344 C 80.761719 211.898438 70.347656 208.578125 74.957031 197.5 Z M 74.957031 197.5 " fill-opacity="1" fill-rule="nonzero"/><path fill="#031d40" d="M 129.222656 208.664062 C 129.222656 208.664062 126.867188 195.683594 112.363281 195.78125 C 102.304688 195.847656 93.410156 204.1875 90.1875 205.804688 C 83.734375 209.046875 78.878906 207.363281 77.027344 204.539062 C 78.625 205.273438 83.695312 207.574219 93.71875 199.410156 C 101.726562 192.890625 109.851562 188.800781 117.628906 191.578125 C 128.617188 195.503906 129.222656 208.664062 129.222656 208.664062 Z M 129.222656 208.664062 " fill-opacity="1" fill-rule="nonzero"/><path fill="#031d40" d="M 127.328125 212.550781 C 127.328125 212.550781 125.035156 206.269531 117.105469 207.195312 C 109.984375 208.027344 101.929688 221.558594 89.007812 219.75 C 100.480469 223.855469 109.65625 218.902344 114.609375 214.554688 C 119.558594 210.210938 123.746094 209.449219 127.328125 212.550781 Z M 127.328125 212.550781 " fill-opacity="1" fill-rule="nonzero"/><path fill="#031d40" d="M 116.902344 193.132812 C 116.902344 193.132812 116.179688 176.0625 123.664062 164.980469 C 122.941406 162.59375 115.453125 172.777344 114.609375 192.742188 C 116.058594 194.71875 116.902344 193.132812 116.902344 193.132812 Z M 116.902344 193.132812 " fill-opacity="1" fill-rule="nonzero"/><path fill="#031d40" d="M 123.664062 164.636719 C 123.664062 164.636719 126.203125 174.851562 122.519531 180.648438 C 122.398438 179.742188 122.902344 177.207031 122.902344 177.207031 C 122.902344 177.207031 121.855469 178.253906 121.332031 178.375 C 121.574219 177.449219 122.925781 175.152344 122.925781 175.152344 C 122.417969 175.476562 121.332031 176.441406 121.332031 176.441406 C 121.332031 176.441406 122.707031 174.308594 122.925781 174.066406 C 122.257812 174.226562 121.332031 174.710938 121.332031 174.710938 C 121.332031 174.710938 122.382812 172.214844 122.925781 171.933594 C 122.335938 171.894531 121.652344 172.644531 121.652344 172.644531 C 121.652344 172.644531 122.140625 171.167969 122.925781 170.605469 C 122.457031 170.203125 121.894531 170.886719 121.894531 170.886719 C 121.894531 170.886719 121.894531 165.917969 123.664062 164.636719 Z M 123.664062 164.636719 " fill-opacity="1" fill-rule="nonzero"/><path fill="#031d40" d="M 123.09375 163.671875 C 123.09375 163.671875 129.824219 171.296875 128.945312 177.980469 C 128.441406 177.253906 127.8125 174.839844 127.8125 174.839844 C 127.8125 174.839844 127.300781 176.222656 126.875 176.566406 C 126.695312 175.660156 126.949219 173.0625 126.949219 173.0625 C 126.621094 173.574219 126.042969 174.902344 126.042969 174.902344 C 126.042969 174.902344 126.382812 172.4375 126.476562 172.128906 C 125.9375 172.574219 125.296875 173.414062 125.296875 173.414062 C 125.296875 173.414062 125.183594 170.78125 125.558594 170.292969 C 125.003906 170.527344 124.699219 171.484375 124.699219 171.484375 C 124.699219 171.484375 124.511719 169.992188 124.984375 169.148438 C 124.386719 169.015625 124.164062 169.863281 124.164062 169.863281 C 124.164062 169.863281 122.019531 165.585938 123.09375 163.671875 Z M 123.09375 163.671875 " fill-opacity="1" fill-rule="nonzero"/><path fill="#031d40" d="M 122.71875 163.324219 C 122.71875 163.324219 131.59375 165.617188 133.921875 171.425781 C 133.191406 171.128906 131.585938 169.5625 131.585938 169.5625 C 131.585938 169.5625 131.804688 170.949219 131.617188 171.460938 C 131.0625 170.839844 130.082031 168.632812 130.082031 168.632812 C 130.054688 169.222656 130.191406 170.605469 130.191406 170.605469 C 130.191406 170.605469 129.34375 168.453125 129.28125 168.152344 C 129.050781 168.808594 128.914062 169.839844 128.914062 169.839844 C 128.914062 169.839844 127.632812 167.808594 127.707031 167.207031 C 127.371094 167.707031 127.5625 168.640625 127.5625 168.640625 C 127.5625 168.640625 126.730469 167.554688 126.730469 166.617188 C 126.1875 166.847656 126.394531 167.648438 126.394531 167.648438 C 126.394531 167.648438 122.726562 165.445312 122.71875 163.324219 Z M 122.71875 163.324219 " fill-opacity="1" fill-rule="nonzero"/><g clip-path="url(#3a25e2be1c)"><path fill="#031d40" d="M 123.390625 163.765625 C 123.390625 163.765625 132.195312 161.230469 137.15625 165.046875 C 136.375 165.164062 134.195312 164.632812 134.195312 164.632812 C 134.195312 164.632812 135.089844 165.714844 135.191406 166.25 C 134.394531 165.996094 132.429688 164.59375 132.429688 164.59375 C 132.703125 165.117188 133.527344 166.238281 133.527344 166.238281 C 133.527344 166.238281 131.703125 164.8125 131.496094 164.589844 C 131.628906 165.273438 132.039062 166.226562 132.039062 166.226562 C 132.039062 166.226562 129.898438 165.128906 129.660156 164.574219 C 129.621094 165.175781 130.261719 165.882812 130.261719 165.882812 C 130.261719 165.882812 128.996094 165.371094 128.519531 164.566406 C 128.167969 165.039062 128.75 165.625 128.75 165.625 C 128.75 165.625 124.476562 165.589844 123.390625 163.765625 Z M 123.390625 163.765625 " fill-opacity="1" fill-rule="nonzero"/></g><path fill="#031d40" d="M 123.082031 164.351562 C 123.082031 164.351562 113.03125 167.46875 109.976562 173.621094 C 110.816406 173.257812 112.722656 171.511719 112.722656 171.511719 C 112.722656 171.511719 112.371094 172.949219 112.539062 173.460938 C 113.207031 172.773438 114.46875 170.429688 114.46875 170.429688 C 114.453125 171.03125 114.191406 172.460938 114.191406 172.460938 C 114.191406 172.460938 115.304688 170.179688 115.398438 169.867188 C 115.605469 170.523438 115.671875 171.5625 115.671875 171.5625 C 115.671875 171.5625 117.261719 169.371094 117.222656 168.761719 C 117.5625 169.242188 117.273438 170.21875 117.273438 170.21875 C 117.273438 170.21875 118.28125 169.035156 118.359375 168.074219 C 118.945312 168.265625 118.652344 169.101562 118.652344 169.101562 C 118.652344 169.101562 122.902344 166.527344 123.082031 164.351562 Z M 123.082031 164.351562 " fill-opacity="1" fill-rule="nonzero"/><path fill="#031d40" d="M 124.203125 164.339844 C 124.203125 164.339844 114.195312 162.53125 108.933594 166.742188 C 109.8125 166.796875 112.207031 166.089844 112.207031 166.089844 C 112.207031 166.089844 111.289062 167.238281 111.214844 167.78125 C 112.082031 167.464844 114.175781 165.90625 114.175781 165.90625 C 113.90625 166.449219 113.070312 167.632812 113.070312 167.632812 C 113.070312 167.632812 115.003906 166.066406 115.21875 165.824219 C 115.117188 166.515625 114.730469 167.5 114.730469 167.5 C 114.730469 167.5 117.039062 166.234375 117.265625 165.660156 C 117.351562 166.253906 116.6875 167.011719 116.6875 167.011719 C 116.6875 167.011719 118.0625 166.398438 118.539062 165.558594 C 118.964844 166 118.351562 166.628906 118.351562 166.628906 C 118.351562 166.628906 123.121094 166.25 124.203125 164.339844 Z M 124.203125 164.339844 " fill-opacity="1" fill-rule="nonzero"/><path fill="#031d40" d="M 124.695312 164.480469 C 124.695312 164.480469 118.136719 158.078125 111.964844 159.089844 C 112.59375 159.5625 114.765625 160.125 114.765625 160.125 C 114.765625 160.125 113.46875 160.65625 113.125 161.082031 C 113.945312 161.234375 116.339844 160.929688 116.339844 160.929688 C 115.851562 161.257812 114.597656 161.859375 114.597656 161.859375 C 114.597656 161.859375 116.878906 161.46875 117.164062 161.367188 C 116.722656 161.90625 115.914062 162.550781 115.914062 162.550781 C 115.914062 162.550781 118.316406 162.601562 118.789062 162.222656 C 118.539062 162.769531 117.640625 163.089844 117.640625 163.089844 C 117.640625 163.089844 118.996094 163.238281 119.800781 162.753906 C 119.882812 163.339844 119.09375 163.578125 119.09375 163.578125 C 119.09375 163.578125 122.875 165.570312 124.695312 164.480469 Z M 124.695312 164.480469 " fill-opacity="1" fill-rule="nonzero"/><path fill="#031d40" d="M 123.96875 164.136719 C 123.96875 164.136719 121.578125 155.289062 115.746094 153.023438 C 116.046875 153.75 117.632812 155.339844 117.632812 155.339844 C 117.632812 155.339844 116.246094 155.132812 115.734375 155.328125 C 116.363281 155.875 118.578125 156.832031 118.578125 156.832031 C 117.992188 156.867188 116.605469 156.742188 116.605469 156.742188 C 116.605469 156.742188 118.769531 157.566406 119.070312 157.625 C 118.414062 157.867188 117.386719 158.011719 117.386719 158.011719 C 117.386719 158.011719 119.433594 159.273438 120.03125 159.191406 C 119.539062 159.535156 118.601562 159.351562 118.601562 159.351562 C 118.601562 159.351562 119.691406 160.171875 120.632812 160.164062 C 120.40625 160.707031 119.605469 160.511719 119.605469 160.511719 C 119.605469 160.511719 121.847656 164.152344 123.96875 164.136719 Z M 123.96875 164.136719 " fill-opacity="1" fill-rule="nonzero"/><path fill="#031d40" d="M 123.390625 163.824219 C 123.390625 163.824219 129.523438 157.015625 135.75 157.632812 C 135.152344 158.148438 133.019531 158.84375 133.019531 158.84375 C 133.019531 158.84375 134.347656 159.289062 134.71875 159.695312 C 133.910156 159.898438 131.503906 159.75 131.503906 159.75 C 132.007812 160.046875 133.300781 160.5625 133.300781 160.5625 C 133.300781 160.5625 131 160.320312 130.703125 160.238281 C 131.179688 160.746094 132.03125 161.339844 132.03125 161.339844 C 132.03125 161.339844 129.636719 161.542969 129.140625 161.195312 C 129.425781 161.726562 130.339844 161.988281 130.339844 161.988281 C 130.339844 161.988281 128.996094 162.222656 128.164062 161.792969 C 128.117188 162.378906 128.921875 162.566406 128.921875 162.566406 C 128.921875 162.566406 125.277344 164.800781 123.390625 163.824219 Z M 123.390625 163.824219 " fill-opacity="1" fill-rule="nonzero"/><g clip-path="url(#00f77bdb1c)"><path fill="#031d40" d="M 122.792969 164.070312 C 122.792969 164.070312 124.425781 155.054688 130.046875 152.300781 C 129.808594 153.054688 128.363281 154.769531 128.363281 154.769531 C 128.363281 154.769531 129.726562 154.449219 130.253906 154.597656 C 129.671875 155.195312 127.546875 156.335938 127.546875 156.335938 C 128.136719 156.320312 129.503906 156.082031 129.503906 156.082031 C 129.503906 156.082031 127.417969 157.085938 127.125 157.171875 C 127.796875 157.355469 128.832031 157.410156 128.832031 157.410156 C 128.832031 157.410156 126.902344 158.84375 126.300781 158.808594 C 126.820312 159.109375 127.738281 158.851562 127.738281 158.851562 C 127.738281 158.851562 126.71875 159.757812 125.785156 159.828125 C 126.054688 160.355469 126.835938 160.089844 126.835938 160.089844 C 126.835938 160.089844 124.910156 163.90625 122.792969 164.070312 Z M 122.792969 164.070312 " fill-opacity="1" fill-rule="nonzero"/></g><g fill="#031d40" fill-opacity="1"><g transform="translate(145.294829, 195.757051)"><g><path d="M 18.9375 -23.4375 L 18.9375 -18.859375 L 12.71875 -18.859375 L 12.71875 0 L 7.015625 0 L 7.015625 -18.859375 L 0.796875 -18.859375 L 0.796875 -23.4375 Z M 18.9375 -23.4375 "/></g></g></g><g fill="#031d40" fill-opacity="1"><g transform="translate(165.020454, 195.757051)"><g><path d="M 7.78125 -15.53125 C 8.445312 -16.550781 9.28125 -17.351562 10.28125 -17.9375 C 11.28125 -18.53125 12.394531 -18.828125 13.625 -18.828125 L 13.625 -12.78125 L 12.046875 -12.78125 C 10.628906 -12.78125 9.5625 -12.472656 8.84375 -11.859375 C 8.132812 -11.253906 7.78125 -10.179688 7.78125 -8.640625 L 7.78125 0 L 2.0625 0 L 2.0625 -18.625 L 7.78125 -18.625 Z M 7.78125 -15.53125 "/></g></g></g><g fill="#031d40" fill-opacity="1"><g transform="translate(179.30568, 195.757051)"><g><path d="M 4.9375 -20.5625 C 3.9375 -20.5625 3.117188 -20.859375 2.484375 -21.453125 C 1.847656 -22.046875 1.53125 -22.773438 1.53125 -23.640625 C 1.53125 -24.523438 1.847656 -25.265625 2.484375 -25.859375 C 3.117188 -26.453125 3.9375 -26.75 4.9375 -26.75 C 5.914062 -26.75 6.722656 -26.453125 7.359375 -25.859375 C 7.992188 -25.265625 8.3125 -24.523438 8.3125 -23.640625 C 8.3125 -22.773438 7.992188 -22.046875 7.359375 -21.453125 C 6.722656 -20.859375 5.914062 -20.5625 4.9375 -20.5625 Z M 7.78125 -18.625 L 7.78125 0 L 2.0625 0 L 2.0625 -18.625 Z M 7.78125 -18.625 "/></g></g></g><g fill="#031d40" fill-opacity="1"><g transform="translate(189.151811, 195.757051)"><g><path d="M 10.453125 -5.34375 L 14.484375 -18.625 L 20.5625 -18.625 L 13.953125 0 L 6.90625 0 L 0.296875 -18.625 L 6.40625 -18.625 Z M 10.453125 -5.34375 "/></g></g></g><g fill="#031d40" fill-opacity="1"><g transform="translate(210.04563, 195.757051)"><g><path d="M 16.65625 -4.140625 L 7.90625 -4.140625 L 6.515625 0 L 0.53125 0 L 9.015625 -23.4375 L 15.625 -23.4375 L 24.109375 0 L 18.0625 0 Z M 15.1875 -8.546875 L 12.28125 -17.125 L 9.421875 -8.546875 Z M 15.1875 -8.546875 "/></g></g></g><g fill="#031d40" fill-opacity="1"><g transform="translate(234.644257, 195.757051)"><g><path d="M 7.78125 -24.703125 L 7.78125 0 L 2.0625 0 L 2.0625 -24.703125 Z M 7.78125 -24.703125 "/></g></g></g><g fill="#031d40" fill-opacity="1"><g transform="translate(244.490388, 195.757051)"><g><path d="M 10.546875 0.265625 C 8.722656 0.265625 7.082031 -0.117188 5.625 -0.890625 C 4.164062 -1.671875 3.019531 -2.785156 2.1875 -4.234375 C 1.351562 -5.679688 0.9375 -7.375 0.9375 -9.3125 C 0.9375 -11.226562 1.359375 -12.914062 2.203125 -14.375 C 3.046875 -15.832031 4.203125 -16.953125 5.671875 -17.734375 C 7.140625 -18.515625 8.789062 -18.90625 10.625 -18.90625 C 12.445312 -18.90625 14.09375 -18.515625 15.5625 -17.734375 C 17.03125 -16.953125 18.1875 -15.832031 19.03125 -14.375 C 19.875 -12.914062 20.296875 -11.226562 20.296875 -9.3125 C 20.296875 -7.394531 19.867188 -5.707031 19.015625 -4.25 C 18.160156 -2.789062 16.992188 -1.671875 15.515625 -0.890625 C 14.035156 -0.117188 12.378906 0.265625 10.546875 0.265625 Z M 10.546875 -4.671875 C 11.640625 -4.671875 12.566406 -5.070312 13.328125 -5.875 C 14.097656 -6.675781 14.484375 -7.820312 14.484375 -9.3125 C 14.484375 -10.800781 14.109375 -11.945312 13.359375 -12.75 C 12.617188 -13.550781 11.707031 -13.953125 10.625 -13.953125 C 9.507812 -13.953125 8.582031 -13.554688 7.84375 -12.765625 C 7.113281 -11.984375 6.75 -10.832031 6.75 -9.3125 C 6.75 -7.820312 7.109375 -6.675781 7.828125 -5.875 C 8.554688 -5.070312 9.460938 -4.671875 10.546875 -4.671875 Z M 10.546875 -4.671875 "/></g></g></g><g fill="#031d40" fill-opacity="1"><g transform="translate(265.75135, 195.757051)"><g><path d="M 13.421875 -18.828125 C 15.597656 -18.828125 17.335938 -18.117188 18.640625 -16.703125 C 19.953125 -15.296875 20.609375 -13.359375 20.609375 -10.890625 L 20.609375 0 L 14.921875 0 L 14.921875 -10.125 C 14.921875 -11.363281 14.597656 -12.328125 13.953125 -13.015625 C 13.304688 -13.710938 12.441406 -14.0625 11.359375 -14.0625 C 10.265625 -14.0625 9.394531 -13.710938 8.75 -13.015625 C 8.101562 -12.328125 7.78125 -11.363281 7.78125 -10.125 L 7.78125 0 L 2.0625 0 L 2.0625 -18.625 L 7.78125 -18.625 L 7.78125 -16.15625 C 8.351562 -16.976562 9.128906 -17.628906 10.109375 -18.109375 C 11.097656 -18.585938 12.203125 -18.828125 13.421875 -18.828125 Z M 13.421875 -18.828125 "/></g></g></g><g fill="#031d40" fill-opacity="1"><g transform="translate(288.247244, 195.757051)"><g><path d="M 19.640625 -9.609375 C 19.640625 -9.078125 19.601562 -8.523438 19.53125 -7.953125 L 6.609375 -7.953125 C 6.703125 -6.785156 7.078125 -5.894531 7.734375 -5.28125 C 8.390625 -4.675781 9.195312 -4.375 10.15625 -4.375 C 11.570312 -4.375 12.5625 -4.972656 13.125 -6.171875 L 19.203125 -6.171875 C 18.890625 -4.953125 18.328125 -3.851562 17.515625 -2.875 C 16.703125 -1.894531 15.679688 -1.125 14.453125 -0.5625 C 13.234375 -0.0078125 11.863281 0.265625 10.34375 0.265625 C 8.519531 0.265625 6.894531 -0.117188 5.46875 -0.890625 C 4.050781 -1.671875 2.941406 -2.785156 2.140625 -4.234375 C 1.335938 -5.679688 0.9375 -7.375 0.9375 -9.3125 C 0.9375 -11.25 1.332031 -12.941406 2.125 -14.390625 C 2.914062 -15.835938 4.019531 -16.953125 5.4375 -17.734375 C 6.863281 -18.515625 8.5 -18.90625 10.34375 -18.90625 C 12.15625 -18.90625 13.757812 -18.523438 15.15625 -17.765625 C 16.5625 -17.003906 17.660156 -15.921875 18.453125 -14.515625 C 19.242188 -13.117188 19.640625 -11.484375 19.640625 -9.609375 Z M 13.796875 -11.125 C 13.796875 -12.101562 13.457031 -12.878906 12.78125 -13.453125 C 12.113281 -14.035156 11.28125 -14.328125 10.28125 -14.328125 C 9.320312 -14.328125 8.515625 -14.046875 7.859375 -13.484375 C 7.203125 -12.929688 6.796875 -12.144531 6.640625 -11.125 Z M 13.796875 -11.125 "/></g></g></g><g fill="#031d40" fill-opacity="1"><g transform="translate(145.294829, 212.037067)"><g><path d="M 2.6875 0.0625 C 2.28125 0.0625 1.910156 -0.0078125 1.578125 -0.15625 C 1.242188 -0.300781 0.984375 -0.503906 0.796875 -0.765625 C 0.609375 -1.035156 0.515625 -1.347656 0.515625 -1.703125 L 1.59375 -1.703125 C 1.613281 -1.429688 1.71875 -1.207031 1.90625 -1.03125 C 2.09375 -0.863281 2.351562 -0.78125 2.6875 -0.78125 C 3.039062 -0.78125 3.3125 -0.863281 3.5 -1.03125 C 3.695312 -1.207031 3.796875 -1.425781 3.796875 -1.6875 C 3.796875 -1.894531 3.734375 -2.0625 3.609375 -2.1875 C 3.492188 -2.320312 3.34375 -2.425781 3.15625 -2.5 C 2.976562 -2.570312 2.734375 -2.648438 2.421875 -2.734375 C 2.015625 -2.835938 1.6875 -2.941406 1.4375 -3.046875 C 1.1875 -3.160156 0.972656 -3.332031 0.796875 -3.5625 C 0.617188 -3.789062 0.53125 -4.097656 0.53125 -4.484375 C 0.53125 -4.835938 0.617188 -5.144531 0.796875 -5.40625 C 0.972656 -5.675781 1.21875 -5.878906 1.53125 -6.015625 C 1.851562 -6.160156 2.226562 -6.234375 2.65625 -6.234375 C 3.25 -6.234375 3.734375 -6.082031 4.109375 -5.78125 C 4.492188 -5.488281 4.707031 -5.082031 4.75 -4.5625 L 3.625 -4.5625 C 3.613281 -4.789062 3.507812 -4.984375 3.3125 -5.140625 C 3.113281 -5.296875 2.859375 -5.375 2.546875 -5.375 C 2.253906 -5.375 2.015625 -5.300781 1.828125 -5.15625 C 1.648438 -5.007812 1.5625 -4.796875 1.5625 -4.515625 C 1.5625 -4.328125 1.617188 -4.171875 1.734375 -4.046875 C 1.847656 -3.929688 1.992188 -3.835938 2.171875 -3.765625 C 2.347656 -3.691406 2.585938 -3.613281 2.890625 -3.53125 C 3.304688 -3.414062 3.640625 -3.300781 3.890625 -3.1875 C 4.148438 -3.082031 4.367188 -2.910156 4.546875 -2.671875 C 4.722656 -2.441406 4.8125 -2.132812 4.8125 -1.75 C 4.8125 -1.4375 4.726562 -1.140625 4.5625 -0.859375 C 4.394531 -0.578125 4.148438 -0.351562 3.828125 -0.1875 C 3.503906 -0.0195312 3.125 0.0625 2.6875 0.0625 Z M 2.6875 0.0625 "/></g></g></g><g fill="#031d40" fill-opacity="1"><g transform="translate(152.725918, 212.037067)"><g><path d="M 4.375 -1.265625 L 1.796875 -1.265625 L 1.359375 0 L 0.296875 0 L 2.5 -6.171875 L 3.671875 -6.171875 L 5.875 0 L 4.8125 0 Z M 4.09375 -2.078125 L 3.09375 -4.9375 L 2.078125 -2.078125 Z M 4.09375 -2.078125 "/></g></g></g><g fill="#031d40" fill-opacity="1"><g transform="translate(160.980722, 212.037067)"><g><path d="M 5.96875 -6.15625 L 3.65625 0 L 2.484375 0 L 0.171875 -6.15625 L 1.25 -6.15625 L 3.078125 -1.03125 L 4.90625 -6.15625 Z M 5.96875 -6.15625 "/></g></g></g><g fill="#031d40" fill-opacity="1"><g transform="translate(169.208958, 212.037067)"><g><path d="M 1.671875 -5.34375 L 1.671875 -3.53125 L 3.796875 -3.53125 L 3.796875 -2.71875 L 1.671875 -2.71875 L 1.671875 -0.828125 L 4.0625 -0.828125 L 4.0625 0 L 0.671875 0 L 0.671875 -6.171875 L 4.0625 -6.171875 L 4.0625 -5.34375 Z M 1.671875 -5.34375 "/></g></g></g><g fill="#031d40" fill-opacity="1"><g transform="translate(175.931479, 212.037067)"><g/></g></g><g fill="#031d40" fill-opacity="1"><g transform="translate(180.315732, 212.037067)"><g><path d="M 5.421875 0 L 4.65625 -0.765625 C 4.363281 -0.460938 4.039062 -0.238281 3.6875 -0.09375 C 3.34375 0.0390625 2.957031 0.109375 2.53125 0.109375 C 2.09375 0.109375 1.703125 0.0351562 1.359375 -0.109375 C 1.023438 -0.265625 0.765625 -0.484375 0.578125 -0.765625 C 0.398438 -1.054688 0.3125 -1.390625 0.3125 -1.765625 C 0.3125 -2.191406 0.429688 -2.570312 0.671875 -2.90625 C 0.910156 -3.238281 1.269531 -3.503906 1.75 -3.703125 C 1.582031 -3.910156 1.460938 -4.101562 1.390625 -4.28125 C 1.316406 -4.457031 1.28125 -4.65625 1.28125 -4.875 C 1.28125 -5.144531 1.347656 -5.382812 1.484375 -5.59375 C 1.628906 -5.8125 1.832031 -5.984375 2.09375 -6.109375 C 2.351562 -6.234375 2.65625 -6.296875 3 -6.296875 C 3.34375 -6.296875 3.632812 -6.226562 3.875 -6.09375 C 4.125 -5.96875 4.304688 -5.785156 4.421875 -5.546875 C 4.546875 -5.316406 4.597656 -5.0625 4.578125 -4.78125 L 3.578125 -4.78125 C 3.578125 -5 3.519531 -5.164062 3.40625 -5.28125 C 3.300781 -5.40625 3.148438 -5.46875 2.953125 -5.46875 C 2.753906 -5.46875 2.59375 -5.410156 2.46875 -5.296875 C 2.351562 -5.179688 2.296875 -5.039062 2.296875 -4.875 C 2.296875 -4.71875 2.335938 -4.5625 2.421875 -4.40625 C 2.515625 -4.25 2.679688 -4.046875 2.921875 -3.796875 L 4.546875 -2.171875 L 5.171875 -3.21875 L 6.265625 -3.21875 L 5.46875 -1.859375 L 5.25 -1.484375 L 6.734375 0 Z M 2.53125 -0.75 C 3.082031 -0.75 3.570312 -0.972656 4 -1.421875 L 2.359375 -3.0625 C 1.660156 -2.789062 1.3125 -2.375 1.3125 -1.8125 C 1.3125 -1.507812 1.425781 -1.253906 1.65625 -1.046875 C 1.882812 -0.847656 2.175781 -0.75 2.53125 -0.75 Z M 2.53125 -0.75 "/></g></g></g><g fill="#031d40" fill-opacity="1"><g transform="translate(189.13739, 212.037067)"><g/></g></g><g fill="#031d40" fill-opacity="1"><g transform="translate(193.521643, 212.037067)"><g><path d="M 2.6875 0.0625 C 2.28125 0.0625 1.910156 -0.0078125 1.578125 -0.15625 C 1.242188 -0.300781 0.984375 -0.503906 0.796875 -0.765625 C 0.609375 -1.035156 0.515625 -1.347656 0.515625 -1.703125 L 1.59375 -1.703125 C 1.613281 -1.429688 1.71875 -1.207031 1.90625 -1.03125 C 2.09375 -0.863281 2.351562 -0.78125 2.6875 -0.78125 C 3.039062 -0.78125 3.3125 -0.863281 3.5 -1.03125 C 3.695312 -1.207031 3.796875 -1.425781 3.796875 -1.6875 C 3.796875 -1.894531 3.734375 -2.0625 3.609375 -2.1875 C 3.492188 -2.320312 3.34375 -2.425781 3.15625 -2.5 C 2.976562 -2.570312 2.734375 -2.648438 2.421875 -2.734375 C 2.015625 -2.835938 1.6875 -2.941406 1.4375 -3.046875 C 1.1875 -3.160156 0.972656 -3.332031 0.796875 -3.5625 C 0.617188 -3.789062 0.53125 -4.097656 0.53125 -4.484375 C 0.53125 -4.835938 0.617188 -5.144531 0.796875 -5.40625 C 0.972656 -5.675781 1.21875 -5.878906 1.53125 -6.015625 C 1.851562 -6.160156 2.226562 -6.234375 2.65625 -6.234375 C 3.25 -6.234375 3.734375 -6.082031 4.109375 -5.78125 C 4.492188 -5.488281 4.707031 -5.082031 4.75 -4.5625 L 3.625 -4.5625 C 3.613281 -4.789062 3.507812 -4.984375 3.3125 -5.140625 C 3.113281 -5.296875 2.859375 -5.375 2.546875 -5.375 C 2.253906 -5.375 2.015625 -5.300781 1.828125 -5.15625 C 1.648438 -5.007812 1.5625 -4.796875 1.5625 -4.515625 C 1.5625 -4.328125 1.617188 -4.171875 1.734375 -4.046875 C 1.847656 -3.929688 1.992188 -3.835938 2.171875 -3.765625 C 2.347656 -3.691406 2.585938 -3.613281 2.890625 -3.53125 C 3.304688 -3.414062 3.640625 -3.300781 3.890625 -3.1875 C 4.148438 -3.082031 4.367188 -2.910156 4.546875 -2.671875 C 4.722656 -2.441406 4.8125 -2.132812 4.8125 -1.75 C 4.8125 -1.4375 4.726562 -1.140625 4.5625 -0.859375 C 4.394531 -0.578125 4.148438 -0.351562 3.828125 -0.1875 C 3.503906 -0.0195312 3.125 0.0625 2.6875 0.0625 Z M 2.6875 0.0625 "/></g></g></g><g fill="#031d40" fill-opacity="1"><g transform="translate(200.952732, 212.037067)"><g><path d="M 4.375 -1.265625 L 1.796875 -1.265625 L 1.359375 0 L 0.296875 0 L 2.5 -6.171875 L 3.671875 -6.171875 L 5.875 0 L 4.8125 0 Z M 4.09375 -2.078125 L 3.09375 -4.9375 L 2.078125 -2.078125 Z M 4.09375 -2.078125 "/></g></g></g><g fill="#031d40" fill-opacity="1"><g transform="translate(209.207536, 212.037067)"><g><path d="M 4.28125 -6.15625 L 4.28125 -5.328125 L 1.671875 -5.328125 L 1.671875 -3.515625 L 3.71875 -3.515625 L 3.71875 -2.6875 L 1.671875 -2.6875 L 1.671875 0 L 0.671875 0 L 0.671875 -6.15625 Z M 4.28125 -6.15625 "/></g></g></g><g fill="#031d40" fill-opacity="1"><g transform="translate(215.850343, 212.037067)"><g><path d="M 4.640625 -6.15625 L 4.640625 -5.328125 L 3 -5.328125 L 3 0 L 2 0 L 2 -5.328125 L 0.34375 -5.328125 L 0.34375 -6.15625 Z M 4.640625 -6.15625 "/></g></g></g><g fill="#031d40" fill-opacity="1"><g transform="translate(222.927154, 212.037067)"><g><path d="M 5.234375 -6.15625 L 3.1875 -2.234375 L 3.1875 0 L 2.171875 0 L 2.171875 -2.234375 L 0.140625 -6.15625 L 1.265625 -6.15625 L 2.6875 -3.140625 L 4.109375 -6.15625 Z M 5.234375 -6.15625 "/></g></g></g><g fill="#031d40" fill-opacity="1"><g transform="translate(230.367107, 212.037067)"><g/></g></g><g fill="#031d40" fill-opacity="1"><g transform="translate(234.75136, 212.037067)"><g><path d="M 4.375 -1.265625 L 1.796875 -1.265625 L 1.359375 0 L 0.296875 0 L 2.5 -6.171875 L 3.671875 -6.171875 L 5.875 0 L 4.8125 0 Z M 4.09375 -2.078125 L 3.09375 -4.9375 L 2.078125 -2.078125 Z M 4.09375 -2.078125 "/></g></g></g><g fill="#031d40" fill-opacity="1"><g transform="translate(243.006164, 212.037067)"><g><path d="M 5.71875 0 L 4.71875 0 L 1.671875 -4.59375 L 1.671875 0 L 0.671875 0 L 0.671875 -6.171875 L 1.671875 -6.171875 L 4.71875 -1.578125 L 4.71875 -6.171875 L 5.71875 -6.171875 Z M 5.71875 0 "/></g></g></g><g fill="#031d40" fill-opacity="1"><g transform="translate(251.473538, 212.037067)"><g><path d="M 2.671875 -6.15625 C 3.328125 -6.15625 3.898438 -6.03125 4.390625 -5.78125 C 4.890625 -5.53125 5.269531 -5.171875 5.53125 -4.703125 C 5.800781 -4.234375 5.9375 -3.6875 5.9375 -3.0625 C 5.9375 -2.4375 5.800781 -1.890625 5.53125 -1.421875 C 5.269531 -0.960938 4.890625 -0.609375 4.390625 -0.359375 C 3.898438 -0.117188 3.328125 0 2.671875 0 L 0.671875 0 L 0.671875 -6.15625 Z M 2.671875 -0.828125 C 3.390625 -0.828125 3.941406 -1.019531 4.328125 -1.40625 C 4.710938 -1.800781 4.90625 -2.351562 4.90625 -3.0625 C 4.90625 -3.769531 4.710938 -4.320312 4.328125 -4.71875 C 3.941406 -5.125 3.390625 -5.328125 2.671875 -5.328125 L 1.671875 -5.328125 L 1.671875 -0.828125 Z M 2.671875 -0.828125 "/></g></g></g><g fill="#031d40" fill-opacity="1"><g transform="translate(259.834629, 212.037067)"><g/></g></g><g fill="#031d40" fill-opacity="1"><g transform="translate(264.218888, 212.037067)"><g><path d="M 3.859375 0 L 2.4375 -2.46875 L 1.671875 -2.46875 L 1.671875 0 L 0.671875 0 L 0.671875 -6.15625 L 2.796875 -6.15625 C 3.265625 -6.15625 3.660156 -6.070312 3.984375 -5.90625 C 4.316406 -5.738281 4.5625 -5.515625 4.71875 -5.234375 C 4.882812 -4.960938 4.96875 -4.65625 4.96875 -4.3125 C 4.96875 -3.914062 4.847656 -3.550781 4.609375 -3.21875 C 4.378906 -2.894531 4.023438 -2.671875 3.546875 -2.546875 L 5.0625 0 Z M 1.671875 -3.265625 L 2.796875 -3.265625 C 3.171875 -3.265625 3.453125 -3.359375 3.640625 -3.546875 C 3.835938 -3.742188 3.9375 -4 3.9375 -4.3125 C 3.9375 -4.632812 3.835938 -4.882812 3.640625 -5.0625 C 3.453125 -5.238281 3.171875 -5.328125 2.796875 -5.328125 L 1.671875 -5.328125 Z M 1.671875 -3.265625 "/></g></g></g><g fill="#031d40" fill-opacity="1"><g transform="translate(271.897979, 212.037067)"><g><path d="M 4.375 -1.265625 L 1.796875 -1.265625 L 1.359375 0 L 0.296875 0 L 2.5 -6.171875 L 3.671875 -6.171875 L 5.875 0 L 4.8125 0 Z M 4.09375 -2.078125 L 3.09375 -4.9375 L 2.078125 -2.078125 Z M 4.09375 -2.078125 "/></g></g></g><g fill="#031d40" fill-opacity="1"><g transform="translate(280.152777, 212.037067)"><g><path d="M 4.96875 -4.328125 C 4.96875 -4.015625 4.894531 -3.71875 4.75 -3.4375 C 4.601562 -3.15625 4.363281 -2.925781 4.03125 -2.75 C 3.707031 -2.582031 3.296875 -2.5 2.796875 -2.5 L 1.671875 -2.5 L 1.671875 0 L 0.671875 0 L 0.671875 -6.15625 L 2.796875 -6.15625 C 3.265625 -6.15625 3.660156 -6.070312 3.984375 -5.90625 C 4.316406 -5.75 4.5625 -5.53125 4.71875 -5.25 C 4.882812 -4.976562 4.96875 -4.671875 4.96875 -4.328125 Z M 2.796875 -3.328125 C 3.171875 -3.328125 3.453125 -3.410156 3.640625 -3.578125 C 3.835938 -3.753906 3.9375 -4.003906 3.9375 -4.328125 C 3.9375 -4.992188 3.554688 -5.328125 2.796875 -5.328125 L 1.671875 -5.328125 L 1.671875 -3.328125 Z M 2.796875 -3.328125 "/></g></g></g><g fill="#031d40" fill-opacity="1"><g transform="translate(287.504158, 212.037067)"><g><path d="M 1.671875 -6.15625 L 1.671875 0 L 0.671875 0 L 0.671875 -6.15625 Z M 1.671875 -6.15625 "/></g></g></g><g fill="#031d40" fill-opacity="1"><g transform="translate(291.923847, 212.037067)"><g><path d="M 2.671875 -6.15625 C 3.328125 -6.15625 3.898438 -6.03125 4.390625 -5.78125 C 4.890625 -5.53125 5.269531 -5.171875 5.53125 -4.703125 C 5.800781 -4.234375 5.9375 -3.6875 5.9375 -3.0625 C 5.9375 -2.4375 5.800781 -1.890625 5.53125 -1.421875 C 5.269531 -0.960938 4.890625 -0.609375 4.390625 -0.359375 C 3.898438 -0.117188 3.328125 0 2.671875 0 L 0.671875 0 L 0.671875 -6.15625 Z M 2.671875 -0.828125 C 3.390625 -0.828125 3.941406 -1.019531 4.328125 -1.40625 C 4.710938 -1.800781 4.90625 -2.351562 4.90625 -3.0625 C 4.90625 -3.769531 4.710938 -4.320312 4.328125 -4.71875 C 3.941406 -5.125 3.390625 -5.328125 2.671875 -5.328125 L 1.671875 -5.328125 L 1.671875 -0.828125 Z M 2.671875 -0.828125 "/></g></g></g><g fill="#031d40" fill-opacity="1"><g transform="translate(300.284939, 212.037067)"><g><path d="M 1.671875 -0.8125 L 3.75 -0.8125 L 3.75 0 L 0.671875 0 L 0.671875 -6.15625 L 1.671875 -6.15625 Z M 1.671875 -0.8125 "/></g></g></g><g fill="#031d40" fill-opacity="1"><g transform="translate(306.298898, 212.037067)"><g><path d="M 5.234375 -6.15625 L 3.1875 -2.234375 L 3.1875 0 L 2.171875 0 L 2.171875 -2.234375 L 0.140625 -6.15625 L 1.265625 -6.15625 L 2.6875 -3.140625 L 4.109375 -6.15625 Z M 5.234375 -6.15625 "/></g></g></g></svg>